<?xml version="1.0" encoding="utf-8"?>
<!-- Generator: Adobe Illustrator 22.1.0, SVG Export Plug-In . SVG Version: 6.00 Build 0)  -->
<svg version="1.1" id="レイヤー_1" xmlns="http://www.w3.org/2000/svg" xmlns:xlink="http://www.w3.org/1999/xlink" x="0px"
	 y="0px" viewBox="0 0 390 121.8" style="enable-background:new 0 0 390 121.8;" xml:space="preserve">
<style type="text/css">
	.st0{opacity:0.8;}
</style>
<g>
	<g>
		<path class="st0" d="M95.7,4.2h1.8V0H0v4.2h1.8c0.8,0,1.4,0.6,1.4,1.4v5.6c0,0.8-0.6,1.4-1.4,1.4H0v4.2h39.4
			c3.2,0,5.7,2.5,5.7,5.6v77c0,3.1-2.6,5.6-5.7,5.6H0v4.2h1.8c0.8,0,1.4,0.6,1.4,1.4v5.6c0,0.8-0.6,1.4-1.4,1.4H0v4.2h97.5v-4.2
			h-1.8c-0.8,0-1.4-0.6-1.4-1.4v-5.6c0-0.8,0.6-1.4,1.4-1.4h1.8V105H58.1c-3.2,0-5.7-2.5-5.7-5.6v-77c0-3.1,2.6-5.6,5.7-5.6h39.4
			v-4.2h-1.8c-0.8,0-1.4-0.6-1.4-1.4V5.6C94.3,4.8,94.9,4.2,95.7,4.2z M17.1,11.2c0,0.8-0.6,1.4-1.4,1.4h-3.6
			c-0.8,0-1.4-0.6-1.4-1.4V5.6c0-0.8,0.6-1.4,1.4-1.4h3.6c0.8,0,1.4,0.6,1.4,1.4V11.2z M31,11.2c0,0.8-0.6,1.4-1.4,1.4H26
			c-0.8,0-1.4-0.6-1.4-1.4V5.6c0-0.8,0.6-1.4,1.4-1.4h3.6c0.8,0,1.4,0.6,1.4,1.4V11.2z M44.9,11.2c0,0.8-0.6,1.4-1.4,1.4h-3.6
			c-0.8,0-1.4-0.6-1.4-1.4V5.6c0-0.8,0.6-1.4,1.4-1.4h3.6c0.8,0,1.4,0.6,1.4,1.4V11.2z M17.1,116.2c0,0.8-0.6,1.4-1.4,1.4h-3.6
			c-0.8,0-1.4-0.6-1.4-1.4v-5.6c0-0.8,0.6-1.4,1.4-1.4h3.6c0.8,0,1.4,0.6,1.4,1.4V116.2z M31,116.2c0,0.8-0.6,1.4-1.4,1.4H26
			c-0.8,0-1.4-0.6-1.4-1.4v-5.6c0-0.8,0.6-1.4,1.4-1.4h3.6c0.8,0,1.4,0.6,1.4,1.4V116.2z M44.9,116.2c0,0.8-0.6,1.4-1.4,1.4h-3.6
			c-0.8,0-1.4-0.6-1.4-1.4v-5.6c0-0.8,0.6-1.4,1.4-1.4h3.6c0.8,0,1.4,0.6,1.4,1.4V116.2z M80.4,110.6c0-0.8,0.6-1.4,1.4-1.4h3.6
			c0.8,0,1.4,0.6,1.4,1.4v5.6c0,0.8-0.6,1.4-1.4,1.4h-3.6c-0.8,0-1.4-0.6-1.4-1.4V110.6z M66.5,110.6c0-0.8,0.6-1.4,1.4-1.4h3.6
			c0.8,0,1.4,0.6,1.4,1.4v5.6c0,0.8-0.6,1.4-1.4,1.4h-3.6c-0.8,0-1.4-0.6-1.4-1.4V110.6z M52.6,110.6c0-0.8,0.6-1.4,1.4-1.4h3.6
			c0.8,0,1.4,0.6,1.4,1.4v5.6c0,0.8-0.6,1.4-1.4,1.4H54c-0.8,0-1.4-0.6-1.4-1.4V110.6z M59,11.2c0,0.8-0.6,1.4-1.4,1.4H54
			c-0.8,0-1.4-0.6-1.4-1.4V5.6c0-0.8,0.6-1.4,1.4-1.4h3.6c0.8,0,1.4,0.6,1.4,1.4V11.2z M72.9,11.2c0,0.8-0.6,1.4-1.4,1.4h-3.6
			c-0.8,0-1.4-0.6-1.4-1.4V5.6c0-0.8,0.6-1.4,1.4-1.4h3.6c0.8,0,1.4,0.6,1.4,1.4V11.2z M86.9,11.2c0,0.8-0.6,1.4-1.4,1.4h-3.6
			c-0.8,0-1.4-0.6-1.4-1.4V5.6c0-0.8,0.6-1.4,1.4-1.4h3.6c0.8,0,1.4,0.6,1.4,1.4V11.2z"/>
	</g>
	<g>
		<path class="st0" d="M193.2,4.2h1.8V0H97.5v4.2h1.8c0.8,0,1.4,0.6,1.4,1.4v5.6c0,0.8-0.6,1.4-1.4,1.4h-1.8v4.2h39.4
			c3.2,0,5.7,2.5,5.7,5.6v77c0,3.1-2.6,5.6-5.7,5.6H97.5v4.2h1.8c0.8,0,1.4,0.6,1.4,1.4v5.6c0,0.8-0.6,1.4-1.4,1.4h-1.8v4.2H195
			v-4.2h-1.8c-0.8,0-1.4-0.6-1.4-1.4v-5.6c0-0.8,0.6-1.4,1.4-1.4h1.8V105h-39.4c-3.2,0-5.7-2.5-5.7-5.6v-77c0-3.1,2.6-5.6,5.7-5.6
			H195v-4.2h-1.8c-0.8,0-1.4-0.6-1.4-1.4V5.6C191.8,4.8,192.4,4.2,193.2,4.2z M114.6,11.2c0,0.8-0.6,1.4-1.4,1.4h-3.6
			c-0.8,0-1.4-0.6-1.4-1.4V5.6c0-0.8,0.6-1.4,1.4-1.4h3.6c0.8,0,1.4,0.6,1.4,1.4V11.2z M128.5,11.2c0,0.8-0.6,1.4-1.4,1.4h-3.6
			c-0.8,0-1.4-0.6-1.4-1.4V5.6c0-0.8,0.6-1.4,1.4-1.4h3.6c0.8,0,1.4,0.6,1.4,1.4V11.2z M142.4,11.2c0,0.8-0.6,1.4-1.4,1.4h-3.6
			c-0.8,0-1.4-0.6-1.4-1.4V5.6c0-0.8,0.6-1.4,1.4-1.4h3.6c0.8,0,1.4,0.6,1.4,1.4V11.2z M114.6,116.2c0,0.8-0.6,1.4-1.4,1.4h-3.6
			c-0.8,0-1.4-0.6-1.4-1.4v-5.6c0-0.8,0.6-1.4,1.4-1.4h3.6c0.8,0,1.4,0.6,1.4,1.4V116.2z M128.5,116.2c0,0.8-0.6,1.4-1.4,1.4h-3.6
			c-0.8,0-1.4-0.6-1.4-1.4v-5.6c0-0.8,0.6-1.4,1.4-1.4h3.6c0.8,0,1.4,0.6,1.4,1.4V116.2z M142.4,116.2c0,0.8-0.6,1.4-1.4,1.4h-3.6
			c-0.8,0-1.4-0.6-1.4-1.4v-5.6c0-0.8,0.6-1.4,1.4-1.4h3.6c0.8,0,1.4,0.6,1.4,1.4V116.2z M177.9,110.6c0-0.8,0.6-1.4,1.4-1.4h3.6
			c0.8,0,1.4,0.6,1.4,1.4v5.6c0,0.8-0.6,1.4-1.4,1.4h-3.6c-0.8,0-1.4-0.6-1.4-1.4V110.6z M164,110.6c0-0.8,0.6-1.4,1.4-1.4h3.6
			c0.8,0,1.4,0.6,1.4,1.4v5.6c0,0.8-0.6,1.4-1.4,1.4h-3.6c-0.8,0-1.4-0.6-1.4-1.4V110.6z M150.1,110.6c0-0.8,0.6-1.4,1.4-1.4h3.6
			c0.8,0,1.4,0.6,1.4,1.4v5.6c0,0.8-0.6,1.4-1.4,1.4h-3.6c-0.8,0-1.4-0.6-1.4-1.4V110.6z M156.5,11.2c0,0.8-0.6,1.4-1.4,1.4h-3.6
			c-0.8,0-1.4-0.6-1.4-1.4V5.6c0-0.8,0.6-1.4,1.4-1.4h3.6c0.8,0,1.4,0.6,1.4,1.4V11.2z M170.4,11.2c0,0.8-0.6,1.4-1.4,1.4h-3.6
			c-0.8,0-1.4-0.6-1.4-1.4V5.6c0-0.8,0.6-1.4,1.4-1.4h3.6c0.8,0,1.4,0.6,1.4,1.4V11.2z M184.4,11.2c0,0.8-0.6,1.4-1.4,1.4h-3.6
			c-0.8,0-1.4-0.6-1.4-1.4V5.6c0-0.8,0.6-1.4,1.4-1.4h3.6c0.8,0,1.4,0.6,1.4,1.4V11.2z"/>
	</g>
	<g>
		<path class="st0" d="M290.7,4.2h1.8V0H195v4.2h1.8c0.8,0,1.4,0.6,1.4,1.4v5.6c0,0.8-0.6,1.4-1.4,1.4H195v4.2h39.4
			c3.2,0,5.7,2.5,5.7,5.6v77c0,3.1-2.6,5.6-5.7,5.6H195v4.2h1.8c0.8,0,1.4,0.6,1.4,1.4v5.6c0,0.8-0.6,1.4-1.4,1.4H195v4.2h97.5v-4.2
			h-1.8c-0.8,0-1.4-0.6-1.4-1.4v-5.6c0-0.8,0.6-1.4,1.4-1.4h1.8V105h-39.4c-3.2,0-5.7-2.5-5.7-5.6v-77c0-3.1,2.6-5.6,5.7-5.6h39.4
			v-4.2h-1.8c-0.8,0-1.4-0.6-1.4-1.4V5.6C289.3,4.8,289.9,4.2,290.7,4.2z M212.1,11.2c0,0.8-0.6,1.4-1.4,1.4h-3.6
			c-0.8,0-1.4-0.6-1.4-1.4V5.6c0-0.8,0.6-1.4,1.4-1.4h3.6c0.8,0,1.4,0.6,1.4,1.4V11.2z M226,11.2c0,0.8-0.6,1.4-1.4,1.4H221
			c-0.8,0-1.4-0.6-1.4-1.4V5.6c0-0.8,0.6-1.4,1.4-1.4h3.6c0.8,0,1.4,0.6,1.4,1.4V11.2z M239.9,11.2c0,0.8-0.6,1.4-1.4,1.4h-3.6
			c-0.8,0-1.4-0.6-1.4-1.4V5.6c0-0.8,0.6-1.4,1.4-1.4h3.6c0.8,0,1.4,0.6,1.4,1.4V11.2z M212.1,116.2c0,0.8-0.6,1.4-1.4,1.4h-3.6
			c-0.8,0-1.4-0.6-1.4-1.4v-5.6c0-0.8,0.6-1.4,1.4-1.4h3.6c0.8,0,1.4,0.6,1.4,1.4V116.2z M226,116.2c0,0.8-0.6,1.4-1.4,1.4H221
			c-0.8,0-1.4-0.6-1.4-1.4v-5.6c0-0.8,0.6-1.4,1.4-1.4h3.6c0.8,0,1.4,0.6,1.4,1.4V116.2z M239.9,116.2c0,0.8-0.6,1.4-1.4,1.4h-3.6
			c-0.8,0-1.4-0.6-1.4-1.4v-5.6c0-0.8,0.6-1.4,1.4-1.4h3.6c0.8,0,1.4,0.6,1.4,1.4V116.2z M275.4,110.6c0-0.8,0.6-1.4,1.4-1.4h3.6
			c0.8,0,1.4,0.6,1.4,1.4v5.6c0,0.8-0.6,1.4-1.4,1.4h-3.6c-0.8,0-1.4-0.6-1.4-1.4V110.6z M261.5,110.6c0-0.8,0.6-1.4,1.4-1.4h3.6
			c0.8,0,1.4,0.6,1.4,1.4v5.6c0,0.8-0.6,1.4-1.4,1.4h-3.6c-0.8,0-1.4-0.6-1.4-1.4V110.6z M247.6,110.6c0-0.8,0.6-1.4,1.4-1.4h3.6
			c0.8,0,1.4,0.6,1.4,1.4v5.6c0,0.8-0.6,1.4-1.4,1.4H249c-0.8,0-1.4-0.6-1.4-1.4V110.6z M254,11.2c0,0.8-0.6,1.4-1.4,1.4H249
			c-0.8,0-1.4-0.6-1.4-1.4V5.6c0-0.8,0.6-1.4,1.4-1.4h3.6c0.8,0,1.4,0.6,1.4,1.4V11.2z M267.9,11.2c0,0.8-0.6,1.4-1.4,1.4h-3.6
			c-0.8,0-1.4-0.6-1.4-1.4V5.6c0-0.8,0.6-1.4,1.4-1.4h3.6c0.8,0,1.4,0.6,1.4,1.4V11.2z M281.9,11.2c0,0.8-0.6,1.4-1.4,1.4h-3.6
			c-0.8,0-1.4-0.6-1.4-1.4V5.6c0-0.8,0.6-1.4,1.4-1.4h3.6c0.8,0,1.4,0.6,1.4,1.4V11.2z"/>
	</g>
	<g>
		<path class="st0" d="M388.2,4.2h1.8V0h-97.5v4.2h1.8c0.8,0,1.4,0.6,1.4,1.4v5.6c0,0.8-0.6,1.4-1.4,1.4h-1.8v4.2h39.4
			c3.2,0,5.7,2.5,5.7,5.6v77c0,3.1-2.6,5.6-5.7,5.6h-39.4v4.2h1.8c0.8,0,1.4,0.6,1.4,1.4v5.6c0,0.8-0.6,1.4-1.4,1.4h-1.8v4.2H390
			v-4.2h-1.8c-0.8,0-1.4-0.6-1.4-1.4v-5.6c0-0.8,0.6-1.4,1.4-1.4h1.8V105h-39.4c-3.2,0-5.7-2.5-5.7-5.6v-77c0-3.1,2.6-5.6,5.7-5.6
			H390v-4.2h-1.8c-0.8,0-1.4-0.6-1.4-1.4V5.6C386.8,4.8,387.4,4.2,388.2,4.2z M309.6,11.2c0,0.8-0.6,1.4-1.4,1.4h-3.6
			c-0.8,0-1.4-0.6-1.4-1.4V5.6c0-0.8,0.6-1.4,1.4-1.4h3.6c0.8,0,1.4,0.6,1.4,1.4V11.2z M323.5,11.2c0,0.8-0.6,1.4-1.4,1.4h-3.6
			c-0.8,0-1.4-0.6-1.4-1.4V5.6c0-0.8,0.6-1.4,1.4-1.4h3.6c0.8,0,1.4,0.6,1.4,1.4V11.2z M337.4,11.2c0,0.8-0.6,1.4-1.4,1.4h-3.6
			c-0.8,0-1.4-0.6-1.4-1.4V5.6c0-0.8,0.6-1.4,1.4-1.4h3.6c0.8,0,1.4,0.6,1.4,1.4V11.2z M309.6,116.2c0,0.8-0.6,1.4-1.4,1.4h-3.6
			c-0.8,0-1.4-0.6-1.4-1.4v-5.6c0-0.8,0.6-1.4,1.4-1.4h3.6c0.8,0,1.4,0.6,1.4,1.4V116.2z M323.5,116.2c0,0.8-0.6,1.4-1.4,1.4h-3.6
			c-0.8,0-1.4-0.6-1.4-1.4v-5.6c0-0.8,0.6-1.4,1.4-1.4h3.6c0.8,0,1.4,0.6,1.4,1.4V116.2z M337.4,116.2c0,0.8-0.6,1.4-1.4,1.4h-3.6
			c-0.8,0-1.4-0.6-1.4-1.4v-5.6c0-0.8,0.6-1.4,1.4-1.4h3.6c0.8,0,1.4,0.6,1.4,1.4V116.2z M372.9,110.6c0-0.8,0.6-1.4,1.4-1.4h3.6
			c0.8,0,1.4,0.6,1.4,1.4v5.6c0,0.8-0.6,1.4-1.4,1.4h-3.6c-0.8,0-1.4-0.6-1.4-1.4V110.6z M359,110.6c0-0.8,0.6-1.4,1.4-1.4h3.6
			c0.8,0,1.4,0.6,1.4,1.4v5.6c0,0.8-0.6,1.4-1.4,1.4h-3.6c-0.8,0-1.4-0.6-1.4-1.4V110.6z M345.1,110.6c0-0.8,0.6-1.4,1.4-1.4h3.6
			c0.8,0,1.4,0.6,1.4,1.4v5.6c0,0.8-0.6,1.4-1.4,1.4h-3.6c-0.8,0-1.4-0.6-1.4-1.4V110.6z M351.5,11.2c0,0.8-0.6,1.4-1.4,1.4h-3.6
			c-0.8,0-1.4-0.6-1.4-1.4V5.6c0-0.8,0.6-1.4,1.4-1.4h3.6c0.8,0,1.4,0.6,1.4,1.4V11.2z M365.4,11.2c0,0.8-0.6,1.4-1.4,1.4h-3.6
			c-0.8,0-1.4-0.6-1.4-1.4V5.6c0-0.8,0.6-1.4,1.4-1.4h3.6c0.8,0,1.4,0.6,1.4,1.4V11.2z M379.4,11.2c0,0.8-0.6,1.4-1.4,1.4h-3.6
			c-0.8,0-1.4-0.6-1.4-1.4V5.6c0-0.8,0.6-1.4,1.4-1.4h3.6c0.8,0,1.4,0.6,1.4,1.4V11.2z"/>
	</g>
</g>
</svg>
